<?xml version="1.0" encoding="utf-8"?>
<!-- Generator: Adobe Illustrator 26.0.3, SVG Export Plug-In . SVG Version: 6.00 Build 0)  -->
<svg version="1.0" id="Layer_1" xmlns="http://www.w3.org/2000/svg" xmlns:xlink="http://www.w3.org/1999/xlink" x="0px" y="0px"
	 viewBox="0 0 878.2 623.9" style="enable-background:new 0 0 878.2 623.9;" xml:space="preserve">
<style type="text/css">
	.st0{fill:#FFFFFF;}
	.st1{fill:#C8102E;}
	.st2{fill:none;stroke:#FFFFFF;stroke-width:0.14;}
	.st3{fill:#13294B;}
	.st4{fill:none;}
	.st5{fill:#013333;}
</style>
<path class="st0" d="M115.6,365.6v11.2h-2.5V368h-0.1l-2.1,1l-0.4-2l3-1.4L115.6,365.6z"/>
<path class="st0" d="M131.5,365.4c2.6,0,3.7,1.5,3.7,2.9c0,1.1-0.7,2-1.6,2.5v0c1.2,0.4,2,1.5,2.1,2.8c0,2-1.7,3.4-4.3,3.4
	c-2.8,0-4.2-1.6-4.2-3.1c0-1.3,0.8-2.4,2-2.8l0,0c-1-0.4-1.6-1.4-1.6-2.5C127.5,366.7,129.2,365.5,131.5,365.4L131.5,365.4z
	 M131.4,375.2c0.8,0.1,1.5-0.5,1.5-1.3c0,0,0-0.1,0-0.1c0-1-0.7-1.6-1.8-1.9c-0.8,0.2-1.4,0.9-1.4,1.7
	C129.8,374.5,130.5,375.2,131.4,375.2C131.3,375.2,131.4,375.2,131.4,375.2L131.4,375.2z M131.4,367.2c-0.7-0.1-1.3,0.5-1.3,1.1
	c0,0.1,0,0.1,0,0.2c0,0.8,0.7,1.2,1.6,1.5c0.6-0.2,1.1-0.7,1.1-1.4c0.1-0.7-0.5-1.3-1.2-1.4C131.5,367.2,131.5,367.2,131.4,367.2
	L131.4,367.2z"/>
<path class="st0" d="M149.5,376.8v-2.7h-5v-1.7l4.2-6.8h3.2v6.6h1.3v2H152v2.7L149.5,376.8z M149.5,372.2v-2.5c0-0.7,0-1.4,0.1-2.1
	l0,0c-0.4,0.7-0.7,1.4-1.1,2.1l-1.5,2.5l0,0L149.5,372.2z"/>
<path class="st0" d="M166.6,365.4c2.6,0,3.7,1.5,3.7,2.9c0,1.1-0.7,2-1.6,2.5v0c1.2,0.4,2,1.5,2.1,2.8c0,2-1.7,3.4-4.3,3.4
	c-2.8,0-4.2-1.6-4.2-3.1c0-1.3,0.8-2.4,2-2.8l0,0c-1-0.4-1.6-1.4-1.6-2.5C162.6,366.7,164.3,365.5,166.6,365.4L166.6,365.4z
	 M166.6,375.2c0.8,0.1,1.5-0.5,1.5-1.3c0,0,0-0.1,0-0.1c0-1-0.7-1.6-1.8-1.9c-0.8,0.2-1.4,0.9-1.4,1.7c0,0.8,0.6,1.5,1.5,1.6
	C166.5,375.2,166.5,375.2,166.6,375.2L166.6,375.2z M166.6,367.2c-0.7-0.1-1.3,0.4-1.3,1.1c0,0.1,0,0.1,0,0.2c0,0.8,0.7,1.2,1.6,1.5
	c0.6-0.2,1.1-0.7,1.1-1.4c0.1-0.7-0.5-1.3-1.2-1.4C166.7,367.2,166.6,367.2,166.6,367.2L166.6,367.2z"/>
<path class="st0" d="M141.2,253.9c10.9,4.1,21.6,8.5,32.4,12.7l18.9,7.4c0.4,0.1,0.7,0.4,1,0.7c-0.7,1.3-1.9,2.2-3.2,2.8
	c0-0.4-0.5-0.5-0.8-0.7h-78.3c-6.2-0.3-13-0.1-19.5-0.2c-0.4,0-0.4,0.9-0.8,0.4c-0.6-1-1.6-1.8-1.8-2.9c1.7-1.2,3.8-1.6,5.6-2.5
	l5.8-2.4l27.1-10.6l12.5-4.8L141.2,253.9z"/>
<path class="st1" d="M165.3,265.6c7.6,3.1,15.3,5.9,22.8,9l-18.1,0.1l-14.7-0.1h-62c2-1.4,4.5-2,6.8-3l15.8-6l21.3-8.5l3.1-1.2
	C148.7,258.8,157,262.3,165.3,265.6z"/>
<path class="st0" d="M97.4,291.2c0.6,0.9,1.1,1.8,2,2.1c0.3,6.4,0.6,18,0.8,24.4L100,338v0.6c0,2.2,0,4.5,0.3,6.7
	c0.3,0.7,1.1,0.2,1.3,1.6c-3.9,0-6.8,0-10.7,0.1c-0.3-0.4,0.2-0.7,0.3-1c0.6-0.1,0.9-0.8,1-1.3l0.3-6.3l-0.1-20.8
	c0.3-8.6,0.5-15.6,0.9-24.2C94.9,292.8,94.6,290.1,97.4,291.2L97.4,291.2z"/>
<path class="st0" d="M100.8,287.9c0.6,0.2,1.1,0.6,1.3,1.1c0.1,0.8,0.2,1.8-0.4,2.4c-0.5,0.4-1.1,0.6-1.8,0.4
	c-1.2-0.2-0.9-1.8-2.1-1.9c-1.4,0-3.7-0.6-4.2,1.4c-0.4,0.6-1.2,0.8-1.9,0.4c-0.7-0.5-1.1-1.4-1-2.2c0-0.7,0.4-1.3,1-1.5l0.3-0.2
	L100.8,287.9z"/>
<path class="st0" d="M115,291c0.6,0.9,1.1,1.8,2,2.1c0.3,6.4,0.6,18,0.8,24.4l-0.1,20.4v0.1v0.4c0,2.2,0.1,4.5,0.3,6.7
	c0.3,0.7,1.1,0.2,1.3,1.6c-4,0.2-6.8,0.1-10.7,0.1c-0.3-0.4,0.2-0.7,0.3-1c0.6-0.1,0.8-0.8,1-1.3l0.3-6.3l-0.1-20.8
	c0.3-8.6,0.5-15.6,0.9-24.2C112.6,292.7,112.3,290,115,291L115,291z"/>
<path class="st0" d="M118.5,287.7c0.6,0.2,1,0.6,1.3,1.1c0.1,0.8,0.2,1.8-0.4,2.4c-0.5,0.4-1.1,0.6-1.8,0.4c-1.2-0.2-1-1.8-2.1-1.9
	c-1.4,0-3.7-0.6-4.2,1.4c-0.4,0.6-1.2,0.7-1.9,0.4c-0.7-0.5-1.1-1.4-1-2.2c0-0.7,0.4-1.2,1-1.5l0.3-0.2L118.5,287.7z"/>
<path class="st0" d="M132.7,291.2c0.6,0.9,1.1,1.8,2,2.1c0.3,6.4,0.6,18,0.8,24.4l-0.1,20.4v0.6c0,2.2,0.1,4.5,0.3,6.7
	c0.3,0.7,1.1,0.2,1.3,1.6c-3.9,0.2-6.8,0-10.7,0.1c-0.3-0.4,0.2-0.7,0.3-1c0.6-0.1,0.9-0.8,1-1.3l0.3-6.3l-0.1-20.8
	c0.3-8.6,0.5-15.6,0.9-24.2C130.2,292.8,129.9,290.2,132.7,291.2z"/>
<path class="st0" d="M136.1,287.9c0.6,0.2,1,0.6,1.3,1.1c0.1,0.8,0.2,1.8-0.4,2.4c-0.5,0.4-1.1,0.6-1.8,0.4c-1.2-0.2-1-1.8-2.1-1.9
	c-1.4,0-3.7-0.6-4.2,1.4c-0.4,0.6-1.2,0.8-1.9,0.4c-0.7-0.5-1.1-1.3-1-2.2c0-0.7,0.4-1.2,1-1.5l0.3-0.2L136.1,287.9z"/>
<path class="st0" d="M168.8,291.2c0.6,0.9,1.1,1.8,2,2.1c0.3,6.4,0.6,18,0.8,24.4l-0.1,20.4v0.1v0.5c0,2.2,0.1,4.5,0.3,6.7
	c0.3,0.7,1.1,0.2,1.3,1.6c-3.9,0-6.8,0-10.7,0.1c-0.3-0.4,0.2-0.7,0.3-1c0.6-0.1,0.8-0.8,1-1.3l0.3-6.3l-0.1-20.8
	c0.3-8.6,0.5-15.6,0.9-24.2C166.3,292.8,166,290.2,168.8,291.2L168.8,291.2z"/>
<path class="st0" d="M172.2,287.9c0.6,0.2,1,0.6,1.3,1.1c0.1,0.8,0.2,1.8-0.4,2.4c-0.5,0.4-1.2,0.6-1.8,0.4c-1.2-0.2-1-1.8-2.1-1.9
	c-1.4,0-3.7-0.6-4.2,1.4c-0.4,0.6-1.2,0.8-1.9,0.4c-0.7-0.5-1.1-1.3-1-2.2c0-0.7,0.4-1.2,1-1.5l0.3-0.2L172.2,287.9z"/>
<path class="st0" d="M150.6,291.3c0.6,0.9,1.1,1.8,2,2.1c0.3,6.4,0.6,18,0.8,24.4l-0.1,20.3v0.1v0.4c0,2.2,0.1,4.5,0.3,6.7
	c0.3,0.7,1.1,0.2,1.3,1.6c-3.9,0-6.8,0-10.7,0.1c-0.3-0.4,0.2-0.7,0.3-1c0.6-0.1,0.9-0.8,1-1.3l0.3-6.3l-0.1-20.9
	c0.3-8.5,0.5-15.6,0.9-24.2C148.1,292.9,147.8,290.3,150.6,291.3z"/>
<path class="st0" d="M154,288c0.6,0.2,1,0.6,1.3,1.1c0.1,0.8,0.3,1.8-0.4,2.4c-0.5,0.4-1.1,0.6-1.7,0.4c-1.2-0.2-1-1.8-2.1-1.9
	c-1.4,0-3.7-0.6-4.2,1.4c-0.4,0.6-1.2,0.8-1.9,0.4c-0.7-0.5-1.1-1.4-1-2.2c0-0.7,0.4-1.2,1-1.5l0.3-0.2L154,288z"/>
<path class="st0" d="M186.2,291.3c0.6,0.9,1.1,1.8,2,2.1c0.3,6.4,0.6,18,0.8,24.4l-0.1,20.3v0.1v0.4c0,2.2,0.1,4.5,0.3,6.7
	c0.3,0.7,1.1,0.2,1.3,1.6c-3.9,0-6.8,0-10.7,0.1c-0.3-0.4,0.2-0.7,0.3-1c0.6-0.1,0.8-0.8,1-1.3l0.3-6.3l-0.2-20.9
	c0.3-8.5,0.5-15.6,0.9-24.2C183.7,292.9,183.4,290.3,186.2,291.3z"/>
<path class="st0" d="M189.6,288c0.6,0.2,1,0.6,1.3,1.1c0.1,0.8,0.2,1.8-0.4,2.4c-0.5,0.4-1.1,0.6-1.8,0.4c-1.2-0.2-1-1.8-2.1-1.9
	c-1.4,0-3.7-0.6-4.3,1.4c-0.4,0.6-1.2,0.8-1.9,0.4c-0.7-0.5-1.1-1.4-1-2.2c0-0.7,0.4-1.2,1-1.5l0.3-0.2L189.6,288z"/>
<path class="st0" d="M102.1,349.2h76.8l-0.1-0.9H102L102.1,349.2z"/>
<path class="st0" d="M101.9,351.4h76.9l0.2-1.4H102L101.9,351.4z"/>
<path class="st0" d="M91.1,354.4h9.6l0.2-6.4h-9.7L91.1,354.4z"/>
<path class="st0" d="M92.6,286.8h96.6v-8.6H92.6V286.8z"/>
<path class="st0" d="M161.8,265.7c6.5,2.7,13.1,5.1,19.6,7.8l-15.5,0.1l-12.6-0.1H100c1.7-1.2,3.9-1.7,5.8-2.6l13.5-5.2l18.3-7.3
	l2.7-1.1C147.5,259.9,154.7,262.9,161.8,265.7z"/>
<path class="st2" d="M161.8,265.7c6.5,2.7,13.1,5.1,19.6,7.8l-15.5,0.1l-12.6-0.1H100c1.7-1.2,3.9-1.7,5.8-2.6l13.5-5.2l18.3-7.3
	l2.7-1.1C147.5,259.9,154.7,262.9,161.8,265.7z"/>
<path class="st1" d="M189.7,236.5c11.9,9.9,20.5,23.3,24.6,38.3l0.1-0.1c1.2,5.1,2,10.2,2.5,15.4l-0.2,23.8l-0.3,18
	c-1,28.9-19.3,55.1-45.7,66.6c-19.6,9.3-47.3,8.4-66-2.1c-24.2-12.6-39.8-37.3-40.7-64.6l0.3-38.9l1-9.9c1.5-8.7,4.4-17.2,8.6-25
	l0.1,0.1c15.2-27.4,45.7-42.9,78-38.4C165.9,221.8,178.9,227.6,189.7,236.5L189.7,236.5z"/>
<path class="st0" d="M187.9,239.3c11.5,9.6,19.8,22.4,23.7,36.9l0.1-0.1c1.2,4.9,2,9.9,2.4,14.9l-0.2,22.9l-0.3,17.4
	c-0.9,27.8-18.6,53.1-44,64.2c-18.9,8.9-45.5,8.1-63.6-2c-23.3-12.2-38.3-36-39.1-62.3l0.2-37.5l0.9-9.5c1.5-8.4,4.3-16.5,8.3-24
	l0.1,0.1c14.6-26.4,44-41.3,75.1-37C164.9,225.2,177.4,230.8,187.9,239.3L187.9,239.3z"/>
<path class="st1" d="M180.4,239.2c18.5,13.6,28.4,33.4,28.9,55.7l-0.1,22.8c-0.2,13.2-0.2,26.7-5.6,37.8
	c-6.1,15.9-20.9,30.1-36.4,36.6c-13.5,6.1-31.6,7.5-46.2,2.9c-20.7-5.3-40.5-24.3-46.4-45.2c-2.4-8-3.5-16.4-3.2-24.7l0.1-30.5
	c0.5-26.9,17.2-52.1,41.8-62.5c14.9-6.8,36.2-7.6,51.5-1.1C170.3,233,175.5,235.8,180.4,239.2L180.4,239.2z"/>
<path class="st0" d="M112.9,376v-8.8l0,0l-2.1,1l-0.4-2l3-1.4h2.2V376L112.9,376z"/>
<path class="st0" d="M131.2,364.7c2.6,0,3.7,1.5,3.7,2.9c0,1.1-0.7,2-1.6,2.5v0c1.2,0.4,2,1.5,2.1,2.8c0,2-1.7,3.4-4.3,3.4
	c-2.8,0-4.1-1.6-4.1-3.1c0-1.3,0.8-2.4,2-2.8l0,0c-1-0.4-1.6-1.4-1.6-2.5C127.3,366,129,364.7,131.2,364.7L131.2,364.7z
	 M131.1,374.4c0.8,0.1,1.5-0.5,1.5-1.3c0,0,0-0.1,0-0.1c0-1-0.7-1.5-1.8-1.8c-0.8,0.2-1.4,0.9-1.4,1.7
	C129.5,373.7,130.2,374.4,131.1,374.4C131.1,374.4,131.1,374.4,131.1,374.4z M131.1,366.4c-0.7-0.1-1.3,0.5-1.3,1.1
	c0,0.1,0,0.1,0,0.2c0,0.8,0.7,1.2,1.6,1.5c0.6-0.2,1.1-0.7,1.1-1.4c0-0.7-0.5-1.3-1.2-1.4C131.2,366.5,131.2,366.5,131.1,366.4
	L131.1,366.4z"/>
<path class="st0" d="M149.1,376v-2.6h-4.9v-1.7l4.2-6.8h3.2v6.5h1.3v2h-1.3v2.6L149.1,376z M149.1,371.4V369c0-0.7,0-1.4,0.1-2.1
	h-0.1c-0.4,0.7-0.7,1.4-1,2.1l-1.5,2.4l0,0L149.1,371.4z"/>
<path class="st0" d="M166.1,364.7c2.6,0,3.7,1.5,3.7,2.9c0,1.1-0.7,2-1.6,2.5v0c1.2,0.4,2,1.5,2.1,2.8c0,2-1.7,3.4-4.3,3.4
	c-2.8,0-4.1-1.6-4.1-3.1c0-1.3,0.8-2.4,2-2.8l0,0c-1-0.4-1.6-1.4-1.6-2.5C162.2,366,163.9,364.7,166.1,364.7L166.1,364.7z
	 M166.1,374.4c0.8,0.1,1.5-0.5,1.5-1.3c0,0,0-0.1,0-0.1c0-1-0.7-1.5-1.7-1.8c-0.8,0.2-1.4,0.9-1.4,1.7c0,0.8,0.6,1.5,1.5,1.6
	C166,374.4,166.1,374.4,166.1,374.4L166.1,374.4z M166.1,366.4c-0.7-0.1-1.3,0.5-1.3,1.1c0,0.1,0,0.1,0,0.2c0,0.8,0.7,1.2,1.6,1.5
	c0.6-0.2,1.1-0.7,1.1-1.4c0.1-0.7-0.5-1.3-1.2-1.4C166.2,366.4,166.2,366.4,166.1,366.4L166.1,366.4z"/>
<path class="st0" d="M140.9,253.8c10.8,4.1,21.5,8.4,32.2,12.6l18.8,7.4c0.4,0.1,0.7,0.4,1,0.7c-0.7,1.2-1.9,2.2-3.2,2.8
	c0-0.4-0.5-0.5-0.8-0.7h-77.9c-6.2-0.2-12.9-0.1-19.4-0.2c-0.4,0-0.4,0.9-0.8,0.4c-0.6-1-1.5-1.8-1.8-2.9c1.7-1.1,3.7-1.6,5.6-2.5
	l5.7-2.4l27-10.6l12.6-5L140.9,253.8z"/>
<path class="st1" d="M164.8,265.5c7.5,3.1,15.2,5.8,22.7,9l-18,0.1l-14.6-0.1H93.3c2.2-1.2,4.5-2,6.7-3l15.7-6l21.2-8.4l3.1-1.3
	C148.3,258.7,156.6,262.2,164.8,265.5z"/>
<path class="st0" d="M97.3,290.9c0.6,0.9,1.1,1.8,2,2.1c0.3,6.3,0.6,17.9,0.8,24.2l-0.1,20.2v0.6c0,2.2,0.1,4.4,0.3,6.7
	c0.3,0.7,1.1,0.2,1.3,1.6c-3.9,0-6.7,0-10.6,0.1c-0.3-0.4,0.2-0.7,0.3-1c0.6-0.1,0.8-0.8,1-1.3l0.3-6.2l-0.1-20.7
	c0.3-8.5,0.5-15.5,0.9-24.1C94.8,292.5,94.5,289.8,97.3,290.9z"/>
<path class="st0" d="M100.7,287.6c0.6,0.2,1,0.6,1.3,1.1c0.1,0.8,0.2,1.8-0.4,2.4c-0.5,0.4-1.1,0.6-1.8,0.4
	c-1.2-0.2-0.9-1.8-2.1-1.9c-1.4,0-3.7-0.6-4.2,1.4c-0.4,0.6-1.2,0.8-1.9,0.4c-0.7-0.5-1.1-1.3-1-2.2c0-0.7,0.4-1.2,1-1.5l0.3-0.2
	L100.7,287.6z"/>
<path class="st0" d="M114.9,290.7c0.6,0.9,1.1,1.8,2,2.1c0.3,6.3,0.6,17.9,0.8,24.2l-0.1,20.2v0.1v0.4c0,2.2,0.1,4.4,0.3,6.7
	c0.3,0.7,1.1,0.2,1.3,1.6c-4,0.2-6.8,0.1-10.6,0.1c-0.3-0.4,0.2-0.7,0.3-1c0.6-0.1,0.8-0.8,1-1.3l0.3-6.2l-0.2-20.8
	c0.3-8.5,0.5-15.5,0.9-24.1C112.4,292.3,112.1,289.7,114.9,290.7z"/>
<path class="st0" d="M118.3,287.5c0.6,0.2,1,0.6,1.3,1.1c0.1,0.8,0.2,1.8-0.4,2.4c-0.5,0.4-1.1,0.6-1.8,0.4c-1.2-0.2-1-1.8-2.1-1.9
	c-1.4,0-3.7-0.6-4.2,1.4c-0.4,0.6-1.2,0.8-1.9,0.4c-0.7-0.5-1.1-1.3-1-2.2c0-0.7,0.4-1.2,1-1.5l0.3-0.2L118.3,287.5z"/>
<path class="st0" d="M132.4,291c0.6,0.9,1.1,1.8,2,2.1c0.3,6.3,0.6,17.9,0.8,24.2l-0.1,20.2v0.1v0.4c0,2.2,0.1,4.4,0.3,6.7
	c0.3,0.7,1.1,0.2,1.3,1.6c-3.9,0.2-6.7,0-10.7,0.1c-0.3-0.4,0.2-0.7,0.3-1c0.6-0.1,0.8-0.8,1-1.3l0.3-6.2l-0.1-20.7
	c0.3-8.5,0.5-15.5,0.9-24.1C130,292.5,129.7,289.9,132.4,291z"/>
<path class="st0" d="M135.9,287.6c0.6,0.2,1,0.6,1.3,1.1c0.1,0.8,0.2,1.8-0.4,2.4c-0.5,0.4-1.1,0.6-1.8,0.4
	c-1.2-0.2-0.9-1.8-2.1-1.8c-1.4,0-3.6-0.6-4.2,1.4c-0.4,0.6-1.2,0.7-1.9,0.4c-0.7-0.5-1.1-1.3-1-2.2c0-0.6,0.4-1.2,1-1.5l0.3-0.2
	L135.9,287.6z"/>
<path class="st0" d="M168.3,291c0.6,0.9,1.1,1.8,2,2.1c0.3,6.3,0.6,17.9,0.8,24.2l-0.1,20.2v0.1v0.4c0,2.2,0.1,4.4,0.3,6.7
	c0.3,0.7,1.1,0.2,1.3,1.6c-3.9,0-6.7,0-10.6,0.1c-0.3-0.4,0.2-0.7,0.3-1c0.6-0.1,0.8-0.8,1-1.3l0.3-6.2l-0.1-20.7
	c0.3-8.5,0.5-15.5,0.9-24.1C165.8,292.5,165.5,289.9,168.3,291z"/>
<path class="st0" d="M171.7,287.6c0.6,0.2,1,0.6,1.3,1.1c0.1,0.8,0.2,1.8-0.4,2.4c-0.5,0.4-1.1,0.6-1.8,0.4c-1.2-0.2-1-1.8-2.1-1.8
	c-1.4,0-3.7-0.6-4.2,1.4c-0.4,0.6-1.2,0.7-1.9,0.4c-0.7-0.5-1.1-1.3-1-2.2c0-0.6,0.4-1.2,1-1.5l0.3-0.2L171.7,287.6z"/>
<path class="st0" d="M150.2,291c0.6,0.9,1.1,1.8,2,2.1c0.3,6.3,0.6,17.9,0.8,24.2l-0.1,20.2v0.1v0.4c0,2.2,0.1,4.4,0.3,6.7
	c0.3,0.7,1.1,0.3,1.3,1.6c-3.9,0-6.7,0-10.6,0.1c-0.3-0.4,0.2-0.7,0.3-1c0.6-0.1,0.8-0.8,1-1.3l0.3-6.2l-0.1-20.7
	c0.3-8.5,0.5-15.5,0.9-24.1C147.8,292.6,147.5,290,150.2,291L150.2,291z"/>
<path class="st0" d="M153.6,287.7c0.6,0.2,1,0.6,1.3,1.1c0.1,0.8,0.2,1.8-0.4,2.4c-0.5,0.4-1.1,0.6-1.8,0.4
	c-1.2-0.2-0.9-1.8-2.1-1.9c-1.4,0-3.6-0.6-4.2,1.4c-0.4,0.6-1.2,0.8-1.9,0.4c-0.7-0.5-1.1-1.4-1-2.2c0-0.7,0.4-1.2,1-1.5l0.3-0.2
	L153.6,287.7z"/>
<path class="st0" d="M185.6,291c0.6,0.9,1.1,1.8,2,2.1c0.3,6.3,0.6,17.9,0.8,24.2l-0.1,20.2v0.1v0.4c0,2.2,0.1,4.4,0.3,6.7
	c0.3,0.7,1.1,0.3,1.3,1.6c-3.9,0-6.7,0-10.6,0.1c-0.3-0.4,0.2-0.7,0.3-1c0.6-0.1,0.8-0.8,1-1.3l0.3-6.2l-0.1-20.7
	c0.3-8.5,0.5-15.5,0.9-24.1C183.2,292.6,182.9,290,185.6,291L185.6,291z"/>
<path class="st0" d="M189,287.7c0.6,0.2,1,0.6,1.3,1.1c0.1,0.8,0.2,1.8-0.4,2.4c-0.5,0.4-1.1,0.6-1.8,0.4c-1.2-0.2-1-1.8-2.1-1.9
	c-1.4,0-3.7-0.6-4.2,1.4c-0.4,0.6-1.2,0.8-1.9,0.4c-0.7-0.5-1.1-1.4-1-2.2c0-0.7,0.4-1.2,1-1.5l0.3-0.2L189,287.7z"/>
<path class="st0" d="M178.4,348.6v-0.9h-76.6v0.9H178.4z"/>
<path class="st0" d="M178.4,350.8v-1.4h-76.6v1.4H178.4z"/>
<path class="st0" d="M101.8,351.9v1.6h76.6v-1.6H101.8z"/>
<path class="st0" d="M100.8,353.7v-6.3h-9.7v6.3H100.8L100.8,353.7z"/>
<path class="st0" d="M189.3,353.5v-6.3h-9.7v6.3H189.3z"/>
<path class="st0" d="M188.6,286.5V278h-96v8.6H188.6z"/>
<path class="st0" d="M161.3,265.5c6.5,2.7,13.1,5,19.5,7.8l-15.4,0.1l-12.5-0.1H99.9c1.7-1.2,3.9-1.7,5.8-2.5l13.4-5.1l18.2-7.3
	l2.7-1.1C147.2,259.8,154.2,262.7,161.3,265.5z"/>
<path class="st2" d="M161.3,265.5c6.5,2.7,13.1,5,19.5,7.8l-15.4,0.1l-12.5-0.1H99.9c1.9-0.9,3.9-1.7,5.8-2.5l13.4-5.1l18.2-7.3
	l2.7-1.1C147.2,259.8,154.2,262.7,161.3,265.5z"/>
<path class="st3" d="M324.2,319.9v41.2c0,1,0.2,2.1,0.6,3c0.6,1,1.5,1.7,2.6,2.1c1.1,0.4,2.2,0.7,3.3,0.9c1.5,0.3,2.7,0.5,3.5,0.5
	v3.9h-38.6v-3.9c1.1-0.1,2.5-0.3,4.2-0.5c1.2-0.1,2.3-0.4,3.4-0.8c1.1-0.4,2-1.1,2.7-2c0.6-1,0.8-2.2,0.8-3.3v-53.2l-24.5,62.6h-6.3
	c-0.3-1.1-1-3.3-2.2-6.6c-1.2-3.3-2.1-5.9-2.9-7.9l-18-48.9v43.3c-0.1,3.2,0.2,6.3,0.8,9.5c0.4,1.8,1.3,3.5,2.7,4.8
	c1.4,0.9,2.9,1.6,4.5,2c1.5,0.5,3,0.8,4.5,1.1v3.9h-30.6v-3.9c0.8-0.1,2.2-0.3,4.1-0.7c1.7-0.3,3.2-0.9,4.6-1.8
	c1.5-1.2,2.5-2.9,2.7-4.8c0.5-3.1,0.8-6.3,0.7-9.5v-35.3c0.1-1.8-0.2-3.6-0.8-5.3c-0.5-1.3-1.3-2.5-2.4-3.4c-1.2-1-2.6-1.6-4.1-2
	c-1.4-0.3-2.8-0.5-4.3-0.6v-3.9H268l17.5,46.9l14.8-38.1c0.5-1.4,1-3.1,1.4-5c0.3-1.3,0.6-2.5,0.8-3.8h31.5v3.9h-22.8
	c0,0-0.2,0-0.2,0.4s0.2,0.4,0.2,0.4S324.2,306.6,324.2,319.9L324.2,319.9z"/>
<path class="st3" d="M363.2,362.8c0,0.9,0.2,1.8,0.6,2.6c0.5,0.8,1.3,1.4,2.2,1.7c0.9,0.3,1.9,0.6,2.9,0.7c1.1,0.2,2.3,0.4,3.4,0.4
	v3.3h-33v-3.3l3.3-0.3c1,0,2.1-0.2,3-0.5c0.9-0.3,1.6-0.9,2.1-1.6c0.4-0.8,0.6-1.7,0.6-2.6v-42.9c0-0.9-0.2-1.8-0.6-2.6
	c-0.5-0.8-1.2-1.4-2.1-1.6c-1-0.3-2-0.5-3-0.5l-3.3-0.3v-3.2h33v3.2c-1.1,0.1-2.3,0.2-3.4,0.5c-1,0.1-2,0.4-2.9,0.7
	c-0.9,0.3-1.7,0.9-2.2,1.7c-0.4,0.8-0.6,1.7-0.6,2.6V362.8z"/>
<path class="st4" d="M348.3,320.4v0.7c0-0.9-0.2-1.7-0.6-2.5c-0.5-0.8-1.2-1.4-2.1-1.7c-1-0.4-2-0.7-3-0.9c-1.3-0.3-2.4-0.5-3.4-0.6
	l3.3,0.3c1,0,2.1,0.2,3,0.5c0.9,0.3,1.6,0.9,2.1,1.6C348.1,318.6,348.3,319.5,348.3,320.4L348.3,320.4z"/>
<path class="st4" d="M348.3,362.6v0.7c0,0.9-0.2,1.8-0.6,2.6c-0.5,0.8-1.2,1.4-2.1,1.6c-1,0.3-2,0.5-3,0.5l-3.3,0.3
	c1-0.1,2.1-0.3,3.4-0.6c1-0.2,2-0.5,3-0.9c0.9-0.3,1.7-0.9,2.1-1.8C348.2,364.3,348.4,363.4,348.3,362.6L348.3,362.6z"/>
<path class="st3" d="M491.3,320.4v0.7c0-0.9-0.2-1.7-0.5-2.5c-0.5-0.8-1.2-1.4-2.1-1.7c-1-0.4-2-0.7-3-0.9c-1.3-0.3-2.4-0.5-3.4-0.6
	l3.3,0.3c1,0,2,0.2,3,0.5c0.9,0.3,1.6,0.9,2.1,1.6C491.1,318.6,491.3,319.5,491.3,320.4L491.3,320.4z"/>
<path class="st3" d="M506.2,362.8c0,0.9,0.2,1.8,0.6,2.6c0.5,0.8,1.3,1.4,2.2,1.7c0.9,0.3,1.9,0.6,2.9,0.7c1.1,0.2,2.3,0.4,3.4,0.4
	v3.3h-32.9v-3.3l3.3-0.3c1,0,2-0.2,3-0.5c0.9-0.3,1.6-0.9,2.1-1.6c0.4-0.8,0.6-1.7,0.6-2.6v-42.9c0-0.9-0.2-1.8-0.6-2.6
	c-0.5-0.8-1.2-1.4-2.1-1.6c-1-0.3-2-0.5-3-0.5l-3.3-0.3v-3.2h32.9v3.2c-1.1,0.1-2.3,0.2-3.4,0.5c-1,0.1-2,0.4-2.9,0.7
	c-0.9,0.3-1.7,0.9-2.2,1.7c-0.4,0.8-0.6,1.7-0.6,2.6V362.8z"/>
<path class="st3" d="M491.3,362.6v0.7c0,0.9-0.2,1.8-0.6,2.6c-0.5,0.8-1.2,1.4-2.1,1.6c-1,0.3-2,0.5-3,0.5l-3.3,0.3
	c1.1-0.1,2.3-0.3,3.4-0.6c1-0.2,2-0.5,3-0.9c0.9-0.3,1.7-0.9,2.1-1.8C491.2,364.3,491.4,363.4,491.3,362.6L491.3,362.6z"/>
<path class="st3" d="M651.7,362.8c0,0.9,0.2,1.8,0.5,2.6c0.5,0.8,1.3,1.4,2.2,1.7c0.9,0.3,1.9,0.6,2.9,0.7c1.1,0.2,2.3,0.4,3.4,0.4
	v3.3h-33v-3.3l3.3-0.3c1,0,2.1-0.2,3.1-0.5c0.9-0.3,1.6-0.9,2.1-1.6c0.4-0.8,0.6-1.7,0.6-2.6v-42.9c0-0.9-0.2-1.8-0.6-2.6
	c-0.5-0.8-1.2-1.4-2.1-1.6c-1-0.3-2-0.5-3.1-0.5l-3.3-0.3v-3.2h33v3.2c-1.1,0.1-2.3,0.2-3.4,0.5c-1,0.1-2,0.4-2.9,0.7
	c-0.9,0.3-1.7,0.9-2.2,1.7c-0.4,0.8-0.6,1.7-0.5,2.6V362.8z"/>
<path class="st3" d="M636.8,320.4v0.7c0-0.9-0.2-1.7-0.5-2.5c-0.5-0.8-1.2-1.4-2.1-1.7c-1-0.4-2-0.7-3-0.9c-1.3-0.3-2.4-0.5-3.4-0.6
	l3.3,0.3c1,0,2.1,0.2,3.1,0.5c0.9,0.3,1.6,0.9,2.1,1.6C636.7,318.6,636.9,319.5,636.8,320.4L636.8,320.4z"/>
<path class="st3" d="M636.8,362.6v0.7c0,0.9-0.2,1.8-0.5,2.6c-0.5,0.8-1.2,1.3-2.1,1.6c-1,0.3-2,0.5-3.1,0.5l-3.3,0.3
	c1.1-0.1,2.3-0.3,3.4-0.6c1-0.2,2-0.5,3-0.9c0.9-0.3,1.6-0.9,2.1-1.8C636.7,364.3,636.9,363.4,636.8,362.6L636.8,362.6z"/>
<path class="st3" d="M790.2,320.4v0.7c0-0.9-0.2-1.7-0.5-2.5c-0.5-0.8-1.2-1.4-2.1-1.7c-1-0.4-2-0.7-3-0.9c-1.3-0.3-2.4-0.5-3.4-0.6
	l3.3,0.3c1,0,2,0.2,3,0.5c0.9,0.3,1.6,0.9,2.1,1.6C790,318.6,790.2,319.5,790.2,320.4L790.2,320.4z"/>
<path class="st3" d="M805.1,362.8c0,0.9,0.2,1.8,0.5,2.6c0.5,0.8,1.3,1.4,2.2,1.7c0.9,0.3,1.9,0.6,2.9,0.7c1.1,0.2,2.3,0.4,3.4,0.4
	v3.3h-33v-3.3l3.3-0.3c1,0,2-0.2,3-0.5c0.9-0.3,1.6-0.9,2.1-1.6c0.4-0.8,0.6-1.7,0.5-2.6v-42.9c0-0.9-0.1-1.8-0.5-2.6
	c-0.5-0.8-1.2-1.4-2.1-1.6c-1-0.3-2-0.5-3-0.5l-3.3-0.3v-3.2h33v3.2c-1.1,0.1-2.3,0.2-3.4,0.5c-1,0.1-2,0.4-2.9,0.7
	c-0.9,0.3-1.7,0.9-2.2,1.7c-0.4,0.8-0.6,1.7-0.5,2.6L805.1,362.8L805.1,362.8z"/>
<path class="st3" d="M790.2,362.6v0.7c0,0.9-0.2,1.8-0.5,2.6c-0.5,0.8-1.2,1.4-2.1,1.6c-1,0.3-2,0.5-3,0.5l-3.3,0.3
	c1.1-0.1,2.3-0.3,3.4-0.6c1-0.2,2-0.5,3-0.9c0.9-0.3,1.7-0.9,2.1-1.8C790.1,364.3,790.3,363.4,790.2,362.6L790.2,362.6z"/>
<path class="st3" d="M402.1,373.2c-3.4,0-6.8-0.4-10.1-1.4c-2.8-0.8-5.5-1.8-8-3.2l-2.9,2.9h-3.6l-0.5-21.5h3.6
	c0.9,2.2,1.9,4.4,3.1,6.5c1.2,2.2,2.7,4.2,4.4,6.1c1.6,1.8,3.6,3.4,5.7,4.6c2.3,1.2,4.8,1.8,7.4,1.8c3.8,0,6.7-0.9,8.7-2.8
	c2-1.8,3.1-4.3,3-7c0-2.2-0.9-4.4-2.6-5.9c-2.3-1.9-5.1-3.3-8-4.1l-6.5-2.1c-2-0.6-3.8-1.3-5.5-2c-3.6-1.3-6.7-3.7-8.9-6.8
	c-1.9-3-2.9-6.4-2.9-9.9c0-2.3,0.5-4.6,1.5-6.7c1.1-2.2,2.6-4.2,4.4-5.8c2.1-1.7,4.5-3.1,7.1-3.9c3-1,6.2-1.5,9.4-1.5
	c3.1,0,6.3,0.4,9.3,1.4c2.3,0.7,4.6,1.6,6.8,2.8l2.6-2.5h3.7l0.3,20.3h-3.6c-0.8-2.2-1.8-4.4-3-6.7c-1-2-2.2-3.9-3.6-5.7
	c-1.3-1.6-2.9-2.9-4.7-3.9c-1.9-1-4.1-1.5-6.3-1.5c-2.7-0.1-5.3,0.8-7.4,2.6c-1.9,1.6-2.9,3.9-2.9,6.3c-0.1,2.2,0.8,4.3,2.5,5.8
	c2.3,1.9,4.9,3.2,7.8,4c2.1,0.7,4.2,1.4,6.3,2.1s4.1,1.4,5.7,2c3.6,1.3,6.8,3.5,9.2,6.5c2.2,3,3.3,6.6,3.2,10.3
	c0,2.6-0.6,5.2-1.8,7.5c-1.2,2.3-2.8,4.4-4.9,6c-2.3,1.8-4.9,3.2-7.7,4.1C409,372.8,405.6,373.3,402.1,373.2z"/>
<path class="st3" d="M457.3,373.2c-3.4,0-6.9-0.4-10.2-1.4c-2.8-0.8-5.5-1.8-8-3.2l-2.9,2.9h-3.6l-0.5-21.5h3.6
	c0.9,2.2,1.9,4.4,3.1,6.5c1.2,2.2,2.7,4.2,4.4,6.1c1.6,1.8,3.6,3.4,5.7,4.6c2.3,1.2,4.8,1.8,7.4,1.8c3.8,0,6.7-0.9,8.7-2.8
	c2-1.8,3.1-4.3,3-7c0-2.2-0.9-4.4-2.6-5.9c-2.3-1.9-5.1-3.3-8-4.1l-6.3-2.1c-2-0.6-3.8-1.3-5.5-2c-3.6-1.3-6.7-3.7-8.9-6.8
	c-1.9-2.9-3-6.4-2.9-9.9c0-2.3,0.5-4.6,1.5-6.7c1-2.2,2.5-4.2,4.4-5.8c2.1-1.7,4.5-3.1,7.1-3.9c3-1,6.2-1.5,9.4-1.5
	c3.1,0,6.3,0.4,9.3,1.4c2.3,0.7,4.6,1.6,6.8,2.8l2.6-2.5h3.6l0.3,20.3h-3.6c-0.8-2.2-1.8-4.4-3-6.7c-1-2-2.2-3.9-3.6-5.7
	c-1.3-1.6-2.9-2.9-4.7-3.9c-1.9-1-4.1-1.5-6.3-1.5c-2.7-0.1-5.3,0.8-7.4,2.6c-1.9,1.6-2.9,3.9-2.9,6.3c-0.1,2.2,0.8,4.3,2.5,5.8
	c2.3,1.9,4.9,3.2,7.8,4c2,0.7,4.2,1.4,6.3,2.1s4.1,1.4,5.7,2c3.6,1.3,6.8,3.5,9.2,6.5c2.2,3,3.3,6.6,3.2,10.3c0,2.6-0.6,5.2-1.8,7.5
	c-1.2,2.3-2.8,4.4-4.9,6c-2.3,1.8-4.9,3.2-7.7,4.1C464.3,372.8,460.8,373.3,457.3,373.2L457.3,373.2z"/>
<path class="st3" d="M546.2,373.2c-3.4,0-6.8-0.4-10.1-1.4c-2.8-0.8-5.5-1.8-8-3.2l-2.9,2.9h-3.6l-0.5-21.5h3.6
	c0.9,2.2,1.9,4.4,3.1,6.5c1.2,2.2,2.7,4.2,4.4,6.1c1.6,1.8,3.6,3.4,5.7,4.6c2.3,1.2,4.8,1.8,7.4,1.8c3.8,0,6.7-0.9,8.7-2.8
	c2-1.8,3.1-4.3,3-7c0-2.2-0.9-4.4-2.6-5.9c-2.4-1.9-5.1-3.3-8-4.1l-6.5-2.1c-2-0.6-3.8-1.3-5.5-2c-3.6-1.3-6.7-3.7-8.9-6.8
	c-1.9-3-2.9-6.4-2.9-9.9c0-2.3,0.5-4.6,1.5-6.7c1.1-2.2,2.6-4.2,4.4-5.8c2.1-1.7,4.5-3.1,7.1-3.9c3-1,6.2-1.5,9.4-1.5
	c3.1,0,6.3,0.4,9.2,1.4c2.3,0.7,4.6,1.6,6.8,2.8l2.6-2.5h3.6l0.3,20.3h-3.6c-0.8-2.2-1.8-4.4-3-6.7c-1-2-2.2-3.9-3.6-5.7
	c-1.3-1.6-2.9-2.9-4.7-3.9c-1.9-1-4.1-1.5-6.3-1.5c-2.7-0.1-5.3,0.8-7.4,2.6c-1.9,1.6-2.9,3.9-2.9,6.3c-0.1,2.2,0.8,4.3,2.5,5.8
	c2.3,1.9,4.9,3.2,7.8,4c2.1,0.7,4.2,1.4,6.3,2.1c2.1,0.7,4.1,1.4,5.7,2c3.6,1.3,6.8,3.5,9.3,6.5c2.2,3,3.3,6.6,3.1,10.3
	c0,2.6-0.6,5.2-1.8,7.5c-1.1,2.3-2.8,4.4-4.9,6c-2.3,1.8-4.9,3.2-7.8,4.1C553.1,372.8,549.7,373.3,546.2,373.2L546.2,373.2z"/>
<path class="st3" d="M600.6,373.2c-3.4,0-6.8-0.4-10.2-1.4c-2.8-0.8-5.5-1.8-8-3.2l-2.9,2.9H576l-0.5-21.5h3.6
	c0.9,2.2,1.9,4.4,3.1,6.5c1.2,2.2,2.7,4.2,4.3,6.1c1.6,1.8,3.6,3.4,5.7,4.6c2.3,1.2,4.8,1.8,7.4,1.8c3.8,0,6.7-0.9,8.7-2.8
	c2-1.8,3.1-4.3,3-7c0-2.2-0.9-4.4-2.6-5.9c-2.3-1.9-5.1-3.3-8-4.1l-6.5-2.1c-2-0.6-3.8-1.3-5.5-2c-3.6-1.3-6.7-3.7-8.9-6.8
	c-1.9-2.9-3-6.4-2.9-9.9c0-2.3,0.5-4.6,1.5-6.7c1-2.2,2.5-4.2,4.4-5.8c2.1-1.7,4.5-3.1,7.1-3.9c3-1,6.2-1.5,9.4-1.5
	c3.1,0,6.3,0.4,9.3,1.4c2.3,0.7,4.6,1.6,6.8,2.8l2.5-2.5h3.7l0.3,20.3h-3.6c-0.8-2.2-1.8-4.4-3-6.7c-1-2-2.2-3.9-3.6-5.7
	c-1.3-1.6-2.9-2.9-4.7-3.9c-1.9-1-4.1-1.5-6.3-1.5c-2.7-0.1-5.3,0.8-7.4,2.6c-1.9,1.6-2.9,3.9-2.9,6.3c-0.1,2.2,0.8,4.3,2.5,5.8
	c2.3,1.9,4.9,3.2,7.8,4c2.1,0.7,4.2,1.4,6.3,2.1s4.1,1.4,5.7,2c3.7,1.2,6.9,3.5,9.4,6.4c2.2,3,3.3,6.6,3.2,10.3
	c0,2.6-0.6,5.2-1.8,7.5c-1.2,2.3-2.8,4.4-4.9,6c-2.3,1.8-4.9,3.2-7.8,4.1C607.5,372.8,604.1,373.3,600.6,373.2L600.6,373.2z"/>
<path class="st3" d="M723,327c0.1,3-0.6,6-2.1,8.6c-1.4,2.4-3.3,4.4-5.7,5.9c-2.7,1.6-5.6,2.8-8.6,3.4c-3.6,0.7-7.2,1-10.9,1h-4.9
	v16.7c0,0.9,0.2,1.8,0.6,2.6c0.5,0.8,1.2,1.5,2.2,1.8c0.9,0.3,1.8,0.5,2.7,0.7c1.3,0.3,2.3,0.4,3.2,0.5v3.3h-32.2v-3.3l3.2-0.4
	c1-0.1,1.9-0.3,2.8-0.6c0.9-0.3,1.6-0.9,2.2-1.6c0.4-0.8,0.6-1.8,0.5-2.7v-41.9c0-0.9-0.1-1.7-0.5-2.5c-0.5-0.8-1.3-1.5-2.2-1.8
	c-1-0.4-2.1-0.7-3.1-0.9c-1.3-0.3-2.3-0.4-2.9-0.5v-3.3h32.8c7.7,0,13.4,1.2,17.2,3.7S723,322,723,327L723,327z M706.7,329.2
	c0-4.5-0.9-7.8-2.7-10s-5-3.2-9.6-3.2h-3.5v26.1h1.8c4.6,0,8.1-1.1,10.4-3.2S706.7,333.5,706.7,329.2L706.7,329.2z"/>
<path class="st3" d="M781,327c0.1,3-0.6,6-2.1,8.6c-1.4,2.4-3.3,4.4-5.7,5.9c-2.7,1.6-5.6,2.8-8.6,3.4c-3.6,0.7-7.2,1-10.9,1h-4.9
	v16.7c0,0.9,0.2,1.8,0.6,2.6c0.5,0.8,1.2,1.5,2.2,1.8c0.9,0.3,1.8,0.5,2.7,0.7c1.3,0.2,2.3,0.4,3.2,0.5v3.3h-32.2v-3.3l3.2-0.4
	c1-0.1,1.9-0.3,2.8-0.6c0.9-0.3,1.7-0.9,2.2-1.6c0.4-0.8,0.6-1.8,0.5-2.7v-41.9c0-0.9-0.1-1.7-0.5-2.5c-0.5-0.8-1.3-1.5-2.2-1.8
	c-1-0.4-2-0.7-3.1-0.9c-1.3-0.3-2.3-0.4-2.9-0.5v-3.3h32.8c7.7,0,13.4,1.2,17.2,3.7C779.1,318.3,781,322,781,327L781,327z
	 M764.6,329.2c0-4.5-0.9-7.8-2.7-10s-5-3.2-9.6-3.2h-3.5v26.1h1.8c4.6,0,8.1-1.1,10.5-3.2S764.6,333.5,764.6,329.2L764.6,329.2z"/>
<path class="st3" d="M379.4,263.4c-0.5,0-1.3,0.2-2.2,0.4c-0.9,0.2-1.7,0.5-2.5,1c-0.8,0.6-1.3,1.5-1.4,2.4
	c-0.3,1.7-0.5,3.5-0.4,5.2v14.1c0.1,3.8-1.4,7.5-4.2,10c-2.8,2.5-6.5,3.8-11.2,3.8c-5.4,0-9.6-1.2-12.6-3.7s-4.5-5.9-4.5-10.2V267
	c0-0.6-0.1-1.1-0.4-1.6c-0.3-0.5-0.8-0.9-1.4-1.2c-0.5-0.3-1.1-0.4-1.7-0.6c-0.7-0.1-1.2-0.2-1.7-0.3v-2h19.9v2
	c-0.6,0-1.1,0.1-1.7,0.2c-0.6,0.1-1.2,0.3-1.8,0.4c-0.6,0.1-1.1,0.5-1.4,1.1c-0.2,0.5-0.4,1.1-0.4,1.7V286c0,3.8,0.8,6.5,2.5,8.2
	s4.1,2.6,7.2,2.6c2.7,0.1,5.4-0.9,7.3-2.8c1.8-1.9,2.6-4.7,2.6-8.4v-12.9c0.1-1.7-0.1-3.4-0.5-5.1c-0.2-0.9-0.7-1.8-1.4-2.5
	c-0.7-0.5-1.6-0.9-2.4-1.1c-1.1-0.3-2-0.5-2.4-0.6v-2.1h16.5L379.4,263.4z"/>
<path class="st3" d="M427.6,263.4c-0.5,0-1.2,0.1-2.2,0.3c-0.9,0.1-1.8,0.5-2.5,1c-0.8,0.6-1.3,1.5-1.4,2.5
	c-0.3,1.7-0.5,3.4-0.4,5.2v27.2h-4.8l-23.7-29.4V288c0,1.7,0.1,3.4,0.5,5c0.2,1,0.7,1.9,1.4,2.5c0.7,0.5,1.5,0.9,2.3,1
	c0.8,0.3,1.7,0.5,2.5,0.6v2.1H383v-2.1c0.8-0.1,1.6-0.2,2.4-0.4c0.8-0.2,1.6-0.5,2.3-1c0.7-0.6,1.3-1.4,1.5-2.3
	c0.3-1.7,0.4-3.5,0.4-5.3v-18c0-0.9-0.1-1.7-0.4-2.5c-0.3-0.8-0.7-1.5-1.3-2.1c-0.6-0.6-1.4-1.1-2.2-1.4c-0.9-0.4-1.8-0.6-2.8-0.8
	v-2.1h14.3l20.8,25.7v-14.4c0.1-1.7-0.1-3.4-0.5-5.1c-0.2-1-0.7-1.8-1.5-2.5c-0.7-0.5-1.5-0.8-2.3-1c-0.8-0.3-1.6-0.5-2.5-0.6v-2.1
	h16.3L427.6,263.4L427.6,263.4z"/>
<path class="st3" d="M501.2,263.5c-0.6,0.1-1.1,0.2-1.7,0.3c-0.6,0.2-1.1,0.4-1.6,0.8c-0.7,0.4-1.2,0.8-1.7,1.4
	c-0.5,0.6-0.9,1.3-1.2,2.1c-0.6,1.2-1.3,3-2.3,5.4s-2.1,5.1-3.4,8.1c-1.1,2.7-2.4,5.7-3.7,8.9c-1.3,3.2-2.6,6.3-3.8,9.3h-5.5
	c-2.5-6.1-5-12.4-7.6-18.7s-4.4-10.7-5.4-13.1c-0.3-0.7-0.7-1.4-1.2-2c-0.5-0.6-1.1-1-1.8-1.4c-0.5-0.3-1.1-0.5-1.6-0.7
	c-0.6-0.2-1.2-0.3-1.8-0.4v-2.1h20.6v2c-1.3,0.1-2.6,0.4-3.9,0.7c-0.7,0.3-1,0.6-1,1c0,0.2,0,0.4,0.1,0.6c0.1,0.2,0.2,0.5,0.3,0.9
	c0.6,1.6,1.6,4.1,3.1,7.7s3.7,9,6.7,16.3c1.8-4.5,3.3-8.2,4.5-11.3s2.2-5.8,3.2-8.1c0.5-1.1,0.8-2.2,1.1-3.2
	c0.2-0.7,0.4-1.5,0.5-2.2c0-0.6-0.4-1-1.2-1.4c-1.5-0.5-3-0.8-4.5-0.9v-2.1h15.4L501.2,263.5L501.2,263.5z"/>
<path class="st3" d="M538.8,271h-2c-0.6-1.6-1.5-3.1-2.7-4.4c-0.9-1.3-2.3-2.2-3.8-2.6c-0.7-0.2-1.5-0.2-2.2-0.2c-1,0-1.8,0-2.4,0
	h-5.5v14.6h3.9c0.9,0,1.8-0.1,2.7-0.4c0.8-0.2,1.6-0.7,2.2-1.3c0.5-0.6,1-1.4,1.2-2.2c0.4-0.9,0.7-1.8,0.8-2.7h2v15.9h-2
	c-0.2-1-0.4-1.9-0.8-2.8c-0.3-0.8-0.7-1.6-1.2-2.3c-0.6-0.6-1.3-1.1-2.1-1.3c-0.9-0.3-1.8-0.4-2.8-0.4h-3.9v11
	c0,0.9,0.1,1.8,0.3,2.7c0.1,0.6,0.5,1.2,1,1.5c0.5,0.4,1.2,0.6,1.8,0.7c1.1,0.1,2.1,0.2,3.2,0.2h2.3c0.8,0,1.5-0.1,2.3-0.2
	c0.7-0.1,1.4-0.2,2.1-0.4c0.5-0.1,1.1-0.4,1.5-0.8c1.1-1.2,2.1-2.6,2.9-4c0.8-1.3,1.5-2.6,2.1-4h2l-0.7,11.8h-35.7v-2.1
	c0.5,0,1.2-0.1,2-0.2c0.6-0.1,1.2-0.2,1.8-0.4c0.6-0.2,1.1-0.6,1.4-1.1c0.2-0.5,0.4-1.1,0.3-1.7v-27c0-0.5-0.1-1.1-0.3-1.6
	c-0.3-0.5-0.8-0.9-1.4-1.1c-0.6-0.3-1.3-0.5-2-0.6c-0.8-0.2-1.5-0.3-1.9-0.3v-2.1h33.7L538.8,271L538.8,271z"/>
<path class="st3" d="M588.2,299.3h-14.6c-2.5-3.9-4.6-6.9-6.3-9.2c-1.7-2.3-3.7-4.9-6.2-7.9h-1.5v11.5c0,0.6,0.1,1.1,0.4,1.6
	c0.3,0.5,0.8,0.9,1.4,1.1c0.5,0.2,1,0.3,1.6,0.4c0.6,0.1,1.2,0.2,1.9,0.3v2.1h-20.3v-2.1l2-0.2c0.6,0,1.2-0.2,1.8-0.4
	c0.6-0.2,1-0.6,1.4-1.1c0.3-0.5,0.4-1.1,0.4-1.7v-26.8c0-0.5-0.1-1.1-0.3-1.6c-0.3-0.5-0.8-0.9-1.4-1.1c-0.6-0.3-1.3-0.5-2-0.6
	c-0.8-0.2-1.4-0.3-1.8-0.3v-2.1h21.3c4.8,0,8.4,0.8,10.9,2.2c2.4,1.4,3.9,4,3.7,6.8c0.1,2.4-0.7,4.7-2.3,6.4c-2,1.9-4.4,3.2-7,3.8
	c1.2,1.6,2.6,3.4,4.2,5.5c1.6,2.1,3.3,4.2,5.1,6.4c0.6,0.7,1.3,1.5,2.3,2.5c0.7,0.8,1.6,1.5,2.5,1.9c0.5,0.1,1,0.2,1.6,0.3
	c0.6,0.1,1.1,0.1,1.3,0.1L588.2,299.3L588.2,299.3z M570,271.1c0-2.5-0.7-4.4-2.1-5.6c-1.8-1.3-3.9-1.9-6.1-1.8h-2.1v15.9h2
	c2.2,0.1,4.4-0.6,6.1-2.1C569.2,276.2,569.9,274.1,570,271.1L570,271.1z"/>
<path class="st3" d="M607.5,300.4c-2.2,0-4.4-0.3-6.5-0.9c-1.8-0.5-3.5-1.1-5.1-2l-1.9,1.9h-2.3l-0.3-13.7h2.3
	c0.6,1.4,1.2,2.8,2,4.1c0.8,1.4,1.7,2.7,2.8,3.9c1.1,1.2,2.3,2.1,3.7,2.9c1.5,0.8,3.1,1.2,4.7,1.1c2,0.1,4-0.5,5.6-1.8
	c1.3-1.1,2-2.8,1.9-4.5c0-1.4-0.6-2.8-1.6-3.7c-1.5-1.2-3.2-2.1-5.1-2.6l-4.1-1.3c-1.3-0.4-2.4-0.8-3.5-1.3
	c-2.3-0.8-4.3-2.4-5.7-4.4c-1.2-1.9-1.9-4.1-1.9-6.4c0-1.5,0.4-2.9,1-4.3c0.7-1.4,1.6-2.7,2.8-3.7c1.3-1.1,2.9-2,4.5-2.5
	c1.9-0.7,4-1,6-1c2,0,4,0.3,5.9,0.9c1.5,0.4,3,1,4.3,1.8l1.6-1.6h2.3l0.2,13h-2.3c-0.6-1.4-1.2-2.8-1.9-4.3
	c-0.6-1.3-1.4-2.5-2.3-3.6c-0.8-1-1.8-1.9-3-2.5c-1.2-0.6-2.6-0.9-4-0.9c-1.7-0.1-3.4,0.5-4.7,1.6c-1.2,1-1.9,2.5-1.8,4
	c0,1.4,0.5,2.8,1.6,3.7c1.5,1.2,3.2,2.1,5,2.5c1.3,0.5,2.7,0.9,4,1.4c1.4,0.4,2.6,0.9,3.7,1.3c2.3,0.8,4.4,2.3,5.9,4.2
	c1.4,1.9,2.1,4.2,2,6.5c0,1.7-0.4,3.3-1.2,4.8c-0.7,1.5-1.8,2.8-3.1,3.8c-1.5,1.2-3.2,2-5,2.6C611.9,300.2,609.7,300.5,607.5,300.4
	L607.5,300.4z"/>
<path class="st3" d="M686.5,272.2h-2.1c-0.7-1.8-1.6-3.6-2.7-5.2c-1.2-1.9-2.3-2.9-3.4-3c-0.6-0.1-1.3-0.1-2.1-0.2s-1.6-0.1-2.2-0.1
	h-1.2v29.8c0,0.6,0.1,1.2,0.3,1.7c0.3,0.5,0.8,1,1.4,1.2c0.6,0.2,1.3,0.4,1.9,0.5c0.9,0.2,1.6,0.3,2.2,0.4v2.1h-21.2v-2.1l2.2-0.2
	c0.7,0,1.3-0.2,1.9-0.4c0.6-0.2,1.1-0.6,1.4-1.1c0.2-0.5,0.4-1.1,0.3-1.7v-30.1h-1.2c-0.6,0-1.3,0-2.2,0.1c-0.8,0-1.5,0.1-2.1,0.2
	c-1,0.1-2.2,1.1-3.4,3c-1.1,1.6-2,3.4-2.7,5.2h-2.1v-10.9h36.8V272.2L686.5,272.2z"/>
<path class="st3" d="M734.6,263.4c-0.6,0.1-1.2,0.2-1.8,0.3c-0.5,0.2-1,0.4-1.5,0.7c-0.8,0.4-1.4,1-2,1.6c-0.6,0.7-1.2,1.5-1.8,2.2
	c-1.2,1.7-2.4,3.5-3.7,5.5c-1.3,2-2.7,4.2-4.2,6.6c-0.8,1.1-1.4,2.2-1.8,3.5c-0.3,1.4-0.4,2.8-0.3,4.2v5.4c0,0.6,0.1,1.2,0.3,1.7
	c0.3,0.5,0.8,1,1.4,1.2c0.6,0.2,1.3,0.4,1.9,0.5c0.7,0.2,1.4,0.3,2.2,0.4v2.1h-21.2v-2.1c0.5,0,1.2-0.1,2.2-0.2c0.7,0,1.4-0.2,2-0.4
	c0.6-0.2,1-0.6,1.3-1.1c0.3-0.5,0.4-1.1,0.4-1.7v-6.7c0-0.6,0-1.1,0-1.5c0-0.4-0.1-0.8-0.2-1.1c-0.2-0.5-0.4-0.9-0.7-1.3l-1.2-2.1
	c-1.4-2.4-2.7-4.7-4-6.9s-2.5-4.2-3.7-6.1c-0.5-0.9-1.1-1.7-1.8-2.4c-0.6-0.6-1.2-1.1-1.9-1.5c-0.6-0.3-1.1-0.5-1.8-0.6
	c-0.6-0.1-1.2-0.2-1.8-0.3v-2.1h21.8v2.1c-1.3,0-2.7,0.1-4,0.4c-0.7,0.2-1,0.5-1,0.9c0,0.4,0.1,0.8,0.3,1.2c0.3,0.6,0.7,1.5,1.4,2.7
	s1.5,2.8,2.7,4.8s2.6,4.4,4.2,7.2c3.4-5.4,5.7-9.1,7-11.3c1.3-2.1,1.9-3.4,1.9-3.9c0-0.7-0.5-1.2-1.1-1.4c-1.2-0.4-2.4-0.6-3.6-0.6
	v-2.1h14.1L734.6,263.4L734.6,263.4z"/>
<path class="st5" d="M436.8,266.6v0.5c0-0.6-0.1-1.1-0.3-1.6c-0.3-0.5-0.8-0.9-1.4-1.1c-0.6-0.2-1.2-0.4-1.9-0.6
	c-0.7-0.2-1.4-0.3-2.2-0.4c0.5,0,1.2,0.1,2.1,0.2c0.7,0,1.3,0.1,1.9,0.3c0.6,0.2,1.1,0.5,1.4,1C436.7,265.5,436.8,266,436.8,266.6z"
	/>
<path class="st3" d="M446.3,293.7c0,0.6,0.1,1.1,0.4,1.6c0.3,0.5,0.8,0.9,1.4,1.1c0.6,0.2,1.2,0.4,1.9,0.5c0.7,0.1,1.4,0.2,2.2,0.3
	v2.1H431v-2.1l2.1-0.2c0.7,0,1.3-0.1,1.9-0.3c0.6-0.2,1-0.5,1.4-1c0.3-0.5,0.4-1.1,0.4-1.7v-27.4c0-0.6-0.1-1.2-0.4-1.7
	c-0.3-0.5-0.8-0.9-1.4-1c-0.6-0.2-1.3-0.3-1.9-0.3c-0.9-0.1-1.7-0.1-2.1-0.2v-2.1h21.1v2.1c-0.7,0-1.5,0.1-2.2,0.3
	c-0.6,0.1-1.3,0.2-1.9,0.5c-0.6,0.2-1.1,0.6-1.4,1.1c-0.3,0.5-0.4,1.1-0.4,1.6L446.3,293.7z"/>
<path class="st5" d="M436.8,293.6v0.5c0,0.6-0.1,1.2-0.4,1.7c-0.3,0.5-0.8,0.8-1.4,1c-0.6,0.2-1.3,0.3-1.9,0.3l-2.1,0.2
	c0.6-0.1,1.4-0.2,2.2-0.4c0.6-0.1,1.3-0.3,1.9-0.6c0.6-0.2,1.1-0.6,1.4-1.1C436.7,294.6,436.8,294.1,436.8,293.6z"/>
<path class="st3" d="M640.2,293.7c0,0.6,0.1,1.1,0.4,1.6c0.3,0.5,0.8,0.9,1.4,1.1c0.6,0.2,1.2,0.4,1.9,0.5c0.7,0.1,1.4,0.2,2.2,0.3
	v2.1h-21.1v-2.1l2.1-0.2c0.7,0,1.3-0.1,1.9-0.3c0.6-0.2,1-0.5,1.3-1c0.3-0.5,0.4-1.1,0.4-1.7v-27.4c0-0.6-0.1-1.2-0.4-1.7
	c-0.3-0.5-0.8-0.9-1.3-1c-0.6-0.2-1.3-0.3-1.9-0.3c-0.9-0.1-1.7-0.1-2.1-0.2v-2.1H646v2.1c-0.7,0-1.5,0.1-2.2,0.3
	c-0.6,0.1-1.3,0.2-1.9,0.5c-0.6,0.2-1.1,0.6-1.4,1.1c-0.3,0.5-0.4,1.1-0.4,1.6V293.7z"/>
<path class="st3" d="M630.7,266.6v0.5c0-0.6-0.1-1.1-0.3-1.6c-0.3-0.5-0.8-0.9-1.4-1.1c-0.6-0.2-1.3-0.4-1.9-0.6
	c-0.7-0.2-1.4-0.3-2.2-0.4c0.5,0,1.2,0.1,2.1,0.2c0.7,0,1.3,0.1,1.9,0.3c0.6,0.2,1,0.6,1.3,1C630.6,265.5,630.7,266,630.7,266.6z"/>
<path class="st3" d="M630.7,293.6v0.5c0,0.6-0.1,1.2-0.4,1.7c-0.3,0.5-0.8,0.8-1.3,1c-0.6,0.2-1.3,0.3-1.9,0.3l-2.1,0.2
	c0.6-0.1,1.3-0.2,2.2-0.4c0.6-0.1,1.3-0.3,1.9-0.6c0.6-0.2,1.1-0.6,1.4-1.1C630.6,294.6,630.7,294.1,630.7,293.6z"/>
<path class="st3" d="M292.4,276.2h-0.9c-0.3-0.8-0.7-1.5-1.1-2.2c-0.5-0.8-1-1.2-1.4-1.3l-0.9-0.1c-0.4,0-0.7,0-0.9,0h-0.5v12.8
	c0,0.3,0,0.5,0.1,0.7c0.1,0.2,0.3,0.4,0.6,0.5c0.2,0.1,0.5,0.1,0.8,0.2c0.4,0.1,0.7,0.1,0.9,0.1v0.9H280V287l0.9-0.1
	c0.3,0,0.5-0.1,0.8-0.2c0.3-0.1,0.5-0.3,0.6-0.5c0.1-0.2,0.1-0.5,0.1-0.7v-13H282c-0.3,0-0.6,0-0.9,0s-0.6,0-0.9,0.1
	c-0.5,0.1-0.9,0.5-1.5,1.3c-0.5,0.7-0.9,1.4-1.1,2.2h-0.9v-4.7h15.8L292.4,276.2L292.4,276.2z"/>
<path class="st3" d="M313.2,287.8h-8.8v-0.9l0.8-0.1c0.3,0,0.5-0.1,0.8-0.1c0.2-0.1,0.4-0.2,0.6-0.4c0.1-0.2,0.2-0.5,0.1-0.7v-5.6
	h-6.9v5.5c0,0.2,0,0.5,0.2,0.7c0.1,0.2,0.3,0.4,0.6,0.5c0.2,0.1,0.5,0.1,0.8,0.2c0.3,0.1,0.6,0.1,0.9,0.1v0.9h-8.8v-0.9l0.9-0.1
	c0.3,0,0.5-0.1,0.8-0.1c0.2-0.1,0.4-0.2,0.6-0.5c0.1-0.2,0.2-0.5,0.2-0.7V274c0-0.2,0-0.5-0.1-0.7c-0.1-0.2-0.3-0.4-0.6-0.5
	c-0.3-0.1-0.6-0.2-0.9-0.3c-0.3-0.1-0.5-0.1-0.8-0.1v-0.9h8.8v0.9c-0.3,0-0.6,0.1-0.9,0.1c-0.3,0-0.5,0.1-0.8,0.2
	c-0.3,0.1-0.5,0.2-0.6,0.5c-0.1,0.2-0.1,0.5-0.1,0.7v4.9h6.9V274c0-0.2,0-0.5-0.1-0.7c-0.1-0.2-0.4-0.4-0.6-0.5
	c-0.3-0.1-0.5-0.2-0.8-0.3c-0.3-0.1-0.5-0.1-0.8-0.1v-0.9h8.8v0.9c-0.3,0-0.6,0-0.8,0.1c-0.3,0-0.6,0.1-0.8,0.2
	c-0.3,0.1-0.5,0.2-0.6,0.5c-0.1,0.2-0.1,0.5-0.1,0.7v11.5c0,0.2,0,0.5,0.1,0.7c0.1,0.2,0.3,0.4,0.6,0.5c0.3,0.1,0.5,0.2,0.8,0.2
	c0.3,0.1,0.6,0.1,0.9,0.1L313.2,287.8L313.2,287.8L313.2,287.8z"/>
<path class="st3" d="M328.7,275.6h-0.9c-0.3-0.7-0.7-1.3-1.1-1.9c-0.4-0.5-0.9-0.9-1.6-1.1c-0.3-0.1-0.7-0.1-1-0.1h-1h-2.4v6.3h1.7
	c0.4,0,0.8,0,1.1-0.1c0.4-0.1,0.7-0.3,0.9-0.6c0.2-0.3,0.4-0.6,0.5-0.9c0.2-0.4,0.3-0.8,0.4-1.2h0.9v6.8h-0.9
	c-0.1-0.4-0.2-0.8-0.4-1.2c-0.1-0.4-0.3-0.7-0.5-1c-0.2-0.3-0.6-0.5-0.9-0.6c-0.4-0.1-0.8-0.2-1.2-0.1h-1.7v4.7c0,0.4,0,0.8,0.1,1.2
	c0.1,0.3,0.2,0.5,0.4,0.6c0.2,0.2,0.5,0.3,0.8,0.3c0.4,0.1,0.9,0.1,1.4,0.1h1c0.3,0,0.7,0,1-0.1c0.3,0,0.6-0.1,0.9-0.2
	c0.2-0.1,0.4-0.2,0.6-0.3c0.5-0.5,0.9-1.1,1.2-1.7c0.3-0.6,0.6-1.1,0.9-1.7h0.8l-0.3,5.1h-15.3v-0.9c0.2,0,0.5,0,0.9-0.1
	c0.3,0,0.5-0.1,0.8-0.2c0.2-0.1,0.4-0.2,0.6-0.5c0.1-0.2,0.2-0.5,0.1-0.7V274c0-0.2,0-0.5-0.1-0.7c-0.1-0.2-0.3-0.4-0.6-0.5
	c-0.3-0.1-0.6-0.2-0.8-0.2c-0.4-0.1-0.6-0.1-0.8-0.1v-0.9h14.4L328.7,275.6z"/>
<path class="st3" d="M755.4,280c0,1.2-0.2,2.4-0.7,3.5c-0.5,1.1-1.1,2.1-2,2.9c-0.9,0.9-2,1.6-3.2,2c-1.3,0.5-2.7,0.7-4.1,0.7
	c-1.8,0.1-3.6-0.5-5-1.6c-1.3-1.1-2-2.8-1.9-4.5c0-1.2,0.2-2.4,0.7-3.6c0.5-1.1,1.1-2.1,2-2.9c0.9-0.8,2-1.5,3.1-1.9
	c1.3-0.5,2.6-0.7,4-0.7c1.9-0.1,3.7,0.5,5.2,1.6C754.7,276.7,755.4,278.3,755.4,280L755.4,280z M750.3,278.4
	c0.1-0.9-0.1-1.7-0.6-2.5c-0.4-0.5-1-0.8-1.6-0.8c-0.8,0-1.5,0.3-2,0.9c-0.7,0.7-1.2,1.6-1.5,2.6c-0.3,1-0.6,2-0.7,3.1
	c-0.1,1-0.2,2-0.2,3c-0.1,0.9,0.1,1.8,0.6,2.5c0.4,0.5,1,0.8,1.7,0.8c0.8,0,1.5-0.4,2-1c0.6-0.7,1.1-1.5,1.4-2.4
	c0.3-1,0.6-2,0.8-3.1C750.2,280.5,750.3,279.5,750.3,278.4L750.3,278.4z"/>
<path class="st3" d="M763.7,276.1c-0.5,2.4-0.9,4.5-1.3,6.2s-0.8,3.6-1.3,5.5c-0.2,1.2-0.6,2.4-1.2,3.5c-0.5,0.9-1.2,1.7-2,2.3
	c-0.8,0.7-1.6,1.2-2.6,1.6c-0.9,0.4-1.9,0.6-2.8,0.6c-0.7,0-1.4-0.1-2.1-0.3c-0.5-0.1-0.9-0.4-1.3-0.7c-0.3-0.2-0.5-0.5-0.6-0.9
	c-0.1-0.3-0.2-0.7-0.2-1c0-0.5,0.2-1.1,0.6-1.5c0.4-0.4,1-0.7,1.6-0.7c0.5,0,1,0.1,1.4,0.4c0.4,0.3,0.7,0.6,1,1
	c0.3,0.4,0.5,0.8,0.7,1.3c0.2,0.5,0.4,0.8,0.5,1.1c0.5-0.6,0.9-1.3,1.1-2c0.4-1.4,0.8-2.9,1-4.3l2.6-12.2h-2.8l0.3-1.5h2.8l0.3-1.1
	c0.2-0.9,0.6-1.9,1.1-2.7c0.5-0.9,1.2-1.6,1.9-2.3c0.8-0.7,1.6-1.2,2.5-1.7c0.9-0.4,1.9-0.6,2.9-0.6c0.7,0,1.4,0.1,2.1,0.2
	c0.5,0.1,0.9,0.3,1.3,0.6c0.3,0.2,0.5,0.5,0.6,0.9c0.1,0.3,0.2,0.7,0.2,1c0,0.2-0.1,0.5-0.1,0.7c-0.1,0.3-0.2,0.5-0.4,0.7
	c-0.2,0.2-0.4,0.4-0.7,0.6c-0.3,0.2-0.7,0.2-1,0.2c-0.5,0-1-0.1-1.3-0.4c-0.4-0.3-0.7-0.6-0.9-1c-0.3-0.4-0.5-0.8-0.7-1.3
	c-0.2-0.5-0.3-0.8-0.5-1.1c-0.5,0.6-0.8,1.3-1.1,2c-0.4,1.2-0.7,2.4-1,3.6l-0.4,1.7h3.6l-0.3,1.5L763.7,276.1L763.7,276.1z"/>
</svg>
